<?xml version="1.0" encoding="UTF-8" standalone="no"?>
<!-- Created with Inkscape (http://www.inkscape.org/) -->

<svg
   xmlns:dc="http://purl.org/dc/elements/1.1/"
   xmlns:cc="http://creativecommons.org/ns#"
   xmlns:rdf="http://www.w3.org/1999/02/22-rdf-syntax-ns#"
   xmlns:svg="http://www.w3.org/2000/svg"
   xmlns="http://www.w3.org/2000/svg"
   xmlns:sodipodi="http://sodipodi.sourceforge.net/DTD/sodipodi-0.dtd"
   xmlns:inkscape="http://www.inkscape.org/namespaces/inkscape"
   width="32"
   height="32"
   id="svg9972"
   version="1.1"
   inkscape:version="0.48.4 r9939"
   sodipodi:docname="characters-currency-symbolic.svg">
  <defs
     id="defs9974" />
  <sodipodi:namedview
     id="base"
     pagecolor="#ffffff"
     bordercolor="#666666"
     borderopacity="1.0"
     inkscape:pageopacity="0.0"
     inkscape:pageshadow="2"
     inkscape:zoom="0.35"
     inkscape:cx="375"
     inkscape:cy="-51.428571"
     inkscape:document-units="px"
     inkscape:current-layer="layer1"
     showgrid="false"
     inkscape:window-width="684"
     inkscape:window-height="435"
     inkscape:window-x="959"
     inkscape:window-y="218"
     inkscape:window-maximized="0" />
  <metadata
     id="metadata9977">
    <rdf:RDF>
      <cc:Work
         rdf:about="">
        <dc:format>image/svg+xml</dc:format>
        <dc:type
           rdf:resource="http://purl.org/dc/dcmitype/StillImage" />
        <dc:title />
      </cc:Work>
    </rdf:RDF>
  </metadata>
  <g
     inkscape:label="Layer 1"
     inkscape:groupmode="layer"
     id="layer1"
     transform="translate(0,-1020.3622)">
    <g
       style="font-size:36px;font-style:normal;font-variant:normal;font-weight:normal;font-stretch:normal;line-height:125%;letter-spacing:0px;word-spacing:0px;fill:#888a85;fill-opacity:1;stroke:none;display:inline;font-family:Cantarell;-inkscape-font-specification:Cantarell"
       id="text10746">
      <path
         d="m 10.06,1041.6182 -0.7920002,2.196 c 2.0519982,0.828 3.9600022,1.26 5.7240002,1.296 l 0,5.112 2.124,0 0,-5.22 c 2.231998,-0.288 3.816001,-1.152 4.716,-2.484 0.647999,-0.936 0.9,-1.62 0.9,-3.096 0,-1.584 -1.440001,-2.916 -2.628,-3.492 -1.403999,-0.684 -3.276002,-1.332 -4.824,-1.836 -1.079999,-0.36 -2.592,-0.936 -2.592,-2.16 0,-0.468 0.144,-0.864 0.432,-1.26 0.791999,-1.116 2.088002,-1.332 4.14,-1.332 0.935999,0 2.196001,0.216 3.78,0.648 l 0.72,-2.196 c -0.36,-0.108 -0.612,-0.216 -0.792,-0.252 l -0.396,-0.108 c -0.324,-0.108 -0.936001,-0.252 -1.368,-0.252 -0.36,0 -0.792001,-0.108 -1.152,-0.108 l -0.936,0 0,-4.572 -2.124,0 0,4.788 c -1.223999,0.216 -2.196001,0.576 -2.952,1.044 -1.115999,0.72 -2.3400002,1.98 -2.3400002,3.852 0,1.368 0.5040012,2.448 1.5480002,3.204 0.467999,0.36 1.008,0.684 1.584,0.972 1.115999,0.576 2.412001,0.828 3.6,1.26 1.403998,0.54 3.132,0.72 3.132,2.628 0,0.576 -0.216001,1.08 -0.648,1.512 -0.863999,0.864 -2.160002,1.08 -3.852,1.08 -2.267998,0 -3.096002,-0.432 -5.004,-1.224"
         style=""
         id="path2985" />
    </g>
  </g>
</svg>
