<?xml version="1.0" encoding="UTF-8" standalone="no"?>
<!-- Created with Inkscape (http://www.inkscape.org/) -->

<svg
   xmlns:dc="http://purl.org/dc/elements/1.1/"
   xmlns:cc="http://creativecommons.org/ns#"
   xmlns:rdf="http://www.w3.org/1999/02/22-rdf-syntax-ns#"
   xmlns:svg="http://www.w3.org/2000/svg"
   xmlns="http://www.w3.org/2000/svg"
   xmlns:sodipodi="http://sodipodi.sourceforge.net/DTD/sodipodi-0.dtd"
   xmlns:inkscape="http://www.inkscape.org/namespaces/inkscape"
   width="32"
   height="32"
   id="svg9890"
   version="1.1"
   inkscape:version="0.48.4 r9939"
   sodipodi:docname="characters-picture-symbolic.svg">
  <defs
     id="defs9892" />
  <sodipodi:namedview
     id="base"
     pagecolor="#ffffff"
     bordercolor="#666666"
     borderopacity="1.0"
     inkscape:pageopacity="0.0"
     inkscape:pageshadow="2"
     inkscape:zoom="0.35"
     inkscape:cx="150.85714"
     inkscape:cy="150.85714"
     inkscape:document-units="px"
     inkscape:current-layer="layer1"
     showgrid="false"
     inkscape:window-width="684"
     inkscape:window-height="435"
     inkscape:window-x="959"
     inkscape:window-y="280"
     inkscape:window-maximized="0" />
  <metadata
     id="metadata9895">
    <rdf:RDF>
      <cc:Work
         rdf:about="">
        <dc:format>image/svg+xml</dc:format>
        <dc:type
           rdf:resource="http://purl.org/dc/dcmitype/StillImage" />
        <dc:title />
      </cc:Work>
    </rdf:RDF>
  </metadata>
  <g
     inkscape:label="Layer 1"
     inkscape:groupmode="layer"
     id="layer1"
     transform="translate(0,-1020.3622)">
    <g
       style="font-size:36px;font-style:normal;font-variant:normal;font-weight:normal;font-stretch:normal;line-height:125%;letter-spacing:0px;word-spacing:0px;fill:#888a85;fill-opacity:1;stroke:none;display:inline;font-family:Cantarell;-inkscape-font-specification:Cantarell"
       id="text10707">
      <path
         d="m 33.261719,1033.6112 c -3.6e-5,0.75 -0.392614,1.2481 -1.177735,1.4941 -0.492222,0.1524 -1.347689,0.2286 -2.566406,0.2286 -1.406281,0 -2.425811,-0.088 -3.058594,-0.2637 -0.984403,-0.2578 -1.511746,-0.8027 -1.582031,-1.6348 1.769502,0.1993 3.503875,0.2989 5.203125,0.2989 1.066372,0 2.126918,-0.041 3.181641,-0.1231 m 0,-0.5977 c -1.007848,0.082 -1.810581,0.1231 -2.408203,0.1231 -0.50394,0 -2.64261,-0.1113 -6.416016,-0.334 -0.140652,-0.7968 -0.990261,-1.289 -2.548828,-1.4766 l 0.07031,1.7579 c 1.488255,0.9961 2.859348,2.6953 4.113282,5.0976 1.218719,2.2969 1.828094,4.2188 1.828125,5.7656 -3.1e-5,1.4766 -0.398468,2.2149 -1.195313,2.2149 l -21.1640624,0 c -1.0078199,0 -1.5117256,-0.6152 -1.5117187,-1.8457 -6.9e-6,-1.5234 0.6269456,-3.5039 1.8808593,-5.9414 1.3242087,-2.5547 2.7128792,-4.3184 4.1660158,-5.291 l 0,-1.7579 c -1.5234491,0.1759 -2.3613388,0.668 -2.513672,1.4766 -1.2656342,0.2227 -3.041023,0.334 -5.3261719,0.334 -1.37109747,0 -2.53711193,-0.041 -3.4980468,-0.1231 0.1289045,-2.332 1.14843468,-3.9198 3.0585937,-4.7636 1.2656191,-0.5742 3.5566324,-1.0195 6.8730469,-1.336 2.4140481,-0.2343 4.8632651,-0.3515 7.3476561,-0.3515 6.832006,0 11.560517,0.5625 14.185547,1.6875 1.968715,0.8203 2.988245,2.4082 3.058594,4.7636 m -12.603516,-1.8632 c -1.652366,-0.3399 -3.222676,-0.5098 -4.710937,-0.5098 -1.429705,0 -3.000016,0.1699 -4.710938,0.5098 l 0.861328,1.5117 7.734375,0 0.826172,-1.5117 m 1.160156,7.3828 c -2.4e-5,-0.9492 -0.650414,-1.7168 -1.951172,-2.3028 -1.066427,-0.4804 -2.349629,-0.7206 -3.849609,-0.7207 -1.453142,10e-5 -2.736344,0.252 -3.849609,0.7559 -1.324233,0.5625 -1.986341,1.3184 -1.986328,2.2676 -1.3e-5,0.9609 0.662095,1.7226 1.986328,2.2851 1.113265,0.504 2.396467,0.7559 3.849609,0.7559 1.453105,0 2.736307,-0.2519 3.849609,-0.7559 1.300758,-0.5625 1.951148,-1.3242 1.951172,-2.2851 m 2.917969,5.8359 0.351563,-0.2461 -0.351563,-0.2461 -17.3496093,0 -0.3691406,0.2461 0.3691406,0.2461 17.3496093,0 m -3.814453,-6.9961 c -2.4e-5,0.3868 -0.287133,0.5801 -0.861328,0.5801 -0.609397,0 -0.914085,-0.1933 -0.914063,-0.5801 -2.2e-5,-0.4101 0.304666,-0.6152 0.914063,-0.6152 0.574195,0 0.861304,0.2051 0.861328,0.6152 m -1.845703,-0.8965 c -2.2e-5,0.4102 -0.29885,0.6153 -0.896485,0.6153 -0.574239,0 -0.861348,-0.2051 -0.861328,-0.6153 -2e-5,-0.3749 0.287089,-0.5624 0.861328,-0.5625 0.597635,10e-5 0.896463,0.1876 0.896485,0.5625 m 2.408203,2.3204 c -2.4e-5,0.4101 -0.298852,0.6152 -0.896484,0.6152 -0.574242,0 -0.861351,-0.2051 -0.861329,-0.6152 -2.2e-5,-0.3868 0.287087,-0.5801 0.861329,-0.5801 0.597632,0 0.89646,0.1933 0.896484,0.5801 m -5.097656,-2.5665 c -2e-5,0.4102 -0.304707,0.6153 -0.914063,0.6153 -0.574236,0 -0.861345,-0.2051 -0.861328,-0.6153 -1.7e-5,-0.3867 0.287092,-0.58 0.861328,-0.58 0.609356,0 0.914043,0.1933 0.914063,0.58 m 3.884765,3.9375 c -2.3e-5,0.3985 -0.298851,0.5977 -0.896484,0.5977 -0.57424,0 -0.86135,-0.1992 -0.861328,-0.5977 -2.2e-5,-0.3867 0.287088,-0.58 0.861328,-0.58 0.597633,0 0.896461,0.1933 0.896484,0.58 m -0.65039,-1.6699 c -2.3e-5,0.5157 -0.433616,0.9727 -1.300782,1.3711 -0.75002,0.3164 -1.541035,0.4746 -2.373046,0.4746 -0.808612,0 -1.576189,-0.1582 -2.302735,-0.4746 -0.843765,-0.3633 -1.26564,-0.8203 -1.265625,-1.3711 -1.5e-5,-0.5273 0.457016,-0.9492 1.371094,-1.2656 0.738264,-0.2344 1.51756,-0.3515 2.337891,-0.3516 0.808574,10e-5 1.564432,0.129 2.267578,0.3868 0.843728,0.2812 1.265602,0.6914 1.265625,1.2304 m -5.730469,-1.6523 c -1.7e-5,0.3867 -0.287126,0.5801 -0.861328,0.5801 -0.597672,0 -0.8965,-0.1934 -0.896484,-0.5801 -1.6e-5,-0.4102 0.298812,-0.6152 0.896484,-0.6153 0.574202,10e-5 0.861311,0.2051 0.861328,0.6153 m 4.183594,4.0254 c -2.1e-5,0.3984 -0.298849,0.5976 -0.896485,0.5976 -0.574238,0 -0.861347,-0.1992 -0.861328,-0.5976 -1.9e-5,-0.3867 0.28709,-0.5801 0.861328,-0.5801 0.597636,0 0.896464,0.1934 0.896485,0.5801 m -5.695313,-2.7774 c -1.5e-5,0.3868 -0.287124,0.5801 -0.861328,0.5801 -0.59767,0 -0.896498,-0.1933 -0.896484,-0.5801 -1.4e-5,-0.3984 0.298814,-0.5976 0.896484,-0.5976 0.574204,0 0.861313,0.1992 0.861328,0.5976 m 2.847657,2.6719 c -1.9e-5,0.3867 -0.287128,0.5801 -0.861329,0.5801 -0.597673,0 -0.8965,-0.1934 -0.896484,-0.5801 -1.6e-5,-0.3984 0.298811,-0.5976 0.896484,-0.5977 0.574201,10e-5 0.86131,0.1993 0.861329,0.5977 m -2.337891,-0.8789 c -1.6e-5,0.3867 -0.287125,0.5801 -0.861328,0.5801 -0.597671,0 -0.896499,-0.1934 -0.896485,-0.5801 -1.4e-5,-0.3984 0.298814,-0.5976 0.896485,-0.5977 0.574203,10e-5 0.861312,0.1993 0.861328,0.5977 m -5.7304689,-6.4512 c -0.070322,0.8086 -0.6679781,1.3653 -1.7929687,1.6699 -0.6914138,0.1524 -1.7461003,0.2286 -3.1640625,0.2286 -1.078129,0 -1.86914386,-0.094 -2.3730469,-0.2813 -0.703127,-0.2695 -1.0546892,-0.75 -1.0546875,-1.4414 1.03124732,0.07 1.98046512,0.1055 2.8476562,0.1055 1.8984312,0 3.7441324,-0.094 5.5371094,-0.2813"
         style=""
         id="path2985" />
    </g>
  </g>
</svg>
