<?xml version="1.0" encoding="UTF-8" standalone="no"?>
<!-- Created with Inkscape (http://www.inkscape.org/) -->

<svg
   xmlns:dc="http://purl.org/dc/elements/1.1/"
   xmlns:cc="http://creativecommons.org/ns#"
   xmlns:rdf="http://www.w3.org/1999/02/22-rdf-syntax-ns#"
   xmlns:svg="http://www.w3.org/2000/svg"
   xmlns="http://www.w3.org/2000/svg"
   xmlns:sodipodi="http://sodipodi.sourceforge.net/DTD/sodipodi-0.dtd"
   xmlns:inkscape="http://www.inkscape.org/namespaces/inkscape"
   width="32"
   height="32"
   id="svg10046"
   version="1.1"
   inkscape:version="0.48.4 r9939"
   sodipodi:docname="characters-math-symbolic.svg">
  <defs
     id="defs10048" />
  <sodipodi:namedview
     id="base"
     pagecolor="#ffffff"
     bordercolor="#666666"
     borderopacity="1.0"
     inkscape:pageopacity="0.0"
     inkscape:pageshadow="2"
     inkscape:zoom="0.35"
     inkscape:cx="375"
     inkscape:cy="-51.428571"
     inkscape:document-units="px"
     inkscape:current-layer="layer1"
     showgrid="false"
     inkscape:window-width="684"
     inkscape:window-height="435"
     inkscape:window-x="945"
     inkscape:window-y="214"
     inkscape:window-maximized="0" />
  <metadata
     id="metadata10051">
    <rdf:RDF>
      <cc:Work
         rdf:about="">
        <dc:format>image/svg+xml</dc:format>
        <dc:type
           rdf:resource="http://purl.org/dc/dcmitype/StillImage" />
        <dc:title />
      </cc:Work>
    </rdf:RDF>
  </metadata>
  <g
     inkscape:label="Layer 1"
     inkscape:groupmode="layer"
     id="layer1"
     transform="translate(0,-1020.3622)">
    <g
       style="font-size:36px;font-style:normal;font-variant:normal;font-weight:normal;font-stretch:normal;line-height:125%;letter-spacing:0px;word-spacing:0px;fill:#888a85;fill-opacity:1;stroke:none;display:inline;font-family:Cantarell;-inkscape-font-specification:Cantarell"
       id="text7992">
      <path
         d="m 3.8798828,1051.0487 0.4746094,-2.8125 12.8847658,-11.0039 -7.9804689,-13.6934 0.3164062,-1.8632 18.5449217,0 -0.861328,5.1855 -1.845703,0 c -2.2e-5,-0.2578 0.06443,-0.6914 0.193359,-1.3008 0.140603,-0.5742 0.210916,-1.0078 0.210938,-1.3008 -2.2e-5,-0.6562 -0.7676,-0.9843 -2.302735,-0.9843 l -9.580078,0 7.013672,12.2695 -14.8007811,12.6914 13.6933591,0 c 1.195295,0 1.998029,-0.2402 2.408203,-0.7207 0.421856,-0.5156 0.744122,-1.5 0.966797,-2.9531 l 1.775391,0 -1.054688,6.4863 -20.0566402,0"
         style=""
         id="path2985" />
    </g>
  </g>
</svg>
