<?xml version="1.0" encoding="UTF-8" standalone="no"?>
<!-- Created with Inkscape (http://www.inkscape.org/) -->

<svg
   xmlns:dc="http://purl.org/dc/elements/1.1/"
   xmlns:cc="http://creativecommons.org/ns#"
   xmlns:rdf="http://www.w3.org/1999/02/22-rdf-syntax-ns#"
   xmlns:svg="http://www.w3.org/2000/svg"
   xmlns="http://www.w3.org/2000/svg"
   xmlns:sodipodi="http://sodipodi.sourceforge.net/DTD/sodipodi-0.dtd"
   xmlns:inkscape="http://www.inkscape.org/namespaces/inkscape"
   width="32"
   height="32"
   id="svg9685"
   version="1.1"
   inkscape:version="0.48.4 r9939"
   sodipodi:docname="characters-punctuation-symbolic.svg">
  <defs
     id="defs9687" />
  <sodipodi:namedview
     id="base"
     pagecolor="#ffffff"
     bordercolor="#666666"
     borderopacity="1.0"
     inkscape:pageopacity="0"
     inkscape:pageshadow="2"
     inkscape:zoom="1.4"
     inkscape:cx="-116.3147"
     inkscape:cy="14.192636"
     inkscape:document-units="px"
     inkscape:current-layer="layer1"
     showgrid="false"
     inkscape:window-width="1035"
     inkscape:window-height="684"
     inkscape:window-x="556"
     inkscape:window-y="184"
     inkscape:window-maximized="0" />
  <metadata
     id="metadata9690">
    <rdf:RDF>
      <cc:Work
         rdf:about="">
        <dc:format>image/svg+xml</dc:format>
        <dc:type
           rdf:resource="http://purl.org/dc/dcmitype/StillImage" />
        <dc:title />
      </cc:Work>
    </rdf:RDF>
  </metadata>
  <g
     inkscape:label="Layer 1"
     inkscape:groupmode="layer"
     id="layer1"
     transform="translate(0,-1020.3622)">
    <g
       style="font-size:36px;font-style:normal;font-variant:normal;font-weight:normal;font-stretch:normal;line-height:125%;letter-spacing:0px;word-spacing:0px;fill:#888a85;fill-opacity:1;stroke:none;display:inline;font-family:Cantarell;-inkscape-font-specification:Cantarell"
       id="text10660">
      <path
         d="m 20.271484,1032.9432 7.382813,0 0,0.6328 c -0.914086,0.1055 -1.669945,0.3223 -2.267578,0.6504 -0.351585,0.1758 -1.289084,1.5001 -2.8125,3.9727 -1.804705,2.8711 -2.789079,4.418 -2.953125,4.6406 1.863263,2.1797 3.615214,3.2696 5.255859,3.2696 1.687477,0 2.777319,-0.8614 3.269531,-2.584 l 0.650391,0.457 c -0.808619,3.2227 -2.619164,4.834 -5.431641,4.834 -2.015643,0 -4.078141,-1.1426 -6.1875,-3.4278 -2.660167,2.2852 -5.220712,3.4278 -7.6816402,3.4278 -1.7226609,0 -3.169925,-0.4336 -4.3417969,-1.3008 -1.3007819,-0.9727 -1.9511719,-2.291 -1.9511719,-3.9551 0,-3.2109 2.4374976,-6.082 7.3125,-8.6133 -0.9609439,-2.1093 -1.4414121,-3.8495 -1.4414062,-5.2207 -5.9e-6,-1.7695 0.5683529,-3.1816 1.7050782,-4.2363 1.13671,-1.0547 2.607412,-1.582 4.412109,-1.582 1.371081,0 2.49608,0.3809 3.375,1.1426 0.914046,0.7734 1.371077,1.8164 1.371094,3.1289 -1.7e-5,2.332 -1.927749,4.4472 -5.783203,6.3457 1.66405,2.8711 3.210923,5.291 4.640625,7.2597 2.062482,-2.4726 3.093731,-4.5351 3.09375,-6.1875 -1.9e-5,-1.3359 -0.539081,-2.0097 -1.617188,-2.0215 l 0,-0.6328 m -6.732421,0.4219 c 2.906236,-1.3711 4.35936,-3.123 4.359374,-5.2558 -1.4e-5,-0.8086 -0.257826,-1.5 -0.773437,-2.0743 -0.527357,-0.5624 -1.183606,-0.8437 -1.96875,-0.8437 -0.902355,0 -1.646495,0.3047 -2.232422,0.914 -0.574228,0.6094 -0.861337,1.377 -0.861328,2.3028 -9e-6,1.1016 0.492178,2.7539 1.476563,4.957 m 2.724609,11.0215 c -2.519542,-3.4687 -4.242196,-6.2168 -5.167969,-8.2441 -2.8359424,1.5586 -4.2539098,3.5039 -4.2539061,5.8359 -3.7e-6,1.3711 0.4042928,2.4961 1.2128906,3.375 0.8203068,0.8906 1.9160089,1.3359 3.2871095,1.3359 1.40624,0 3.046864,-0.7675 4.921875,-2.3027"
         style=""
         id="path2985" />
    </g>
  </g>
</svg>
