<?xml version="1.0" encoding="UTF-8" standalone="no"?>
<!-- Created with Inkscape (http://www.inkscape.org/) -->

<svg
   xmlns:dc="http://purl.org/dc/elements/1.1/"
   xmlns:cc="http://creativecommons.org/ns#"
   xmlns:rdf="http://www.w3.org/1999/02/22-rdf-syntax-ns#"
   xmlns:svg="http://www.w3.org/2000/svg"
   xmlns="http://www.w3.org/2000/svg"
   xmlns:sodipodi="http://sodipodi.sourceforge.net/DTD/sodipodi-0.dtd"
   xmlns:inkscape="http://www.inkscape.org/namespaces/inkscape"
   width="32"
   height="32"
   id="svg9816"
   version="1.1"
   inkscape:version="0.48.4 r9939"
   sodipodi:docname="characters-bullet-symbolic.svg">
  <defs
     id="defs9818" />
  <sodipodi:namedview
     id="base"
     pagecolor="#ffffff"
     bordercolor="#666666"
     borderopacity="1.0"
     inkscape:pageopacity="0.0"
     inkscape:pageshadow="2"
     inkscape:zoom="0.35"
     inkscape:cx="150.85714"
     inkscape:cy="177.14286"
     inkscape:document-units="px"
     inkscape:current-layer="layer1"
     showgrid="false"
     inkscape:window-width="684"
     inkscape:window-height="435"
     inkscape:window-x="716"
     inkscape:window-y="261"
     inkscape:window-maximized="0" />
  <metadata
     id="metadata9821">
    <rdf:RDF>
      <cc:Work
         rdf:about="">
        <dc:format>image/svg+xml</dc:format>
        <dc:type
           rdf:resource="http://purl.org/dc/dcmitype/StillImage" />
        <dc:title />
      </cc:Work>
    </rdf:RDF>
  </metadata>
  <g
     inkscape:label="Layer 1"
     inkscape:groupmode="layer"
     id="layer1"
     transform="translate(0,-1020.3622)">
    <g
       style="font-size:36px;font-style:normal;font-variant:normal;font-weight:normal;font-stretch:normal;line-height:125%;letter-spacing:0px;word-spacing:0px;fill:#888a85;fill-opacity:1;stroke:none;display:inline;font-family:Cantarell;-inkscape-font-specification:Cantarell"
       id="text10668">
      <path
         d="m 27.777344,1029.5682 c 0.316379,0.6329 0.474582,1.2188 0.474609,1.7578 -2.7e-5,0.6212 -0.15823,1.2071 -0.474609,1.7579 -0.316433,0.539 -0.744167,0.9668 -1.283203,1.2832 -0.550807,0.3164 -1.136744,0.4746 -1.757813,0.4746 -0.632836,0 -1.218772,-0.1582 -1.757812,-0.4746 -0.222678,-0.1289 -0.433616,-0.2813 -0.632813,-0.4571 l -4.236328,2.4434 4.236328,2.4609 c 0.199197,-0.1757 0.410135,-0.3281 0.632813,-0.457 0.53904,-0.3164 1.124976,-0.4746 1.757812,-0.4746 0.621069,0 1.207006,0.1582 1.757813,0.4746 0.539036,0.3164 0.96677,0.7442 1.283203,1.2832 0.316379,0.5508 0.474582,1.1367 0.474609,1.7578 -2.7e-5,0.6094 -0.15823,1.1895 -0.474609,1.7402 -0.328152,0.5508 -0.755886,0.9844 -1.283203,1.3008 -0.550807,0.3164 -1.136744,0.4746 -1.757813,0.4746 -0.597679,0 -1.183616,-0.1582 -1.757812,-0.4746 -0.550803,-0.3047 -0.984396,-0.7324 -1.300782,-1.2832 -0.304708,-0.539 -0.457051,-1.125 -0.457031,-1.7578 -2e-5,-0.2578 0.02342,-0.5097 0.07031,-0.7558 l -4.236329,-2.461 0,4.9043 c 0.246078,0.082 0.480453,0.1875 0.703125,0.3164 0.539046,0.3164 0.96678,0.7442 1.283204,1.2832 0.316387,0.5391 0.47459,1.125 0.474609,1.7578 -1.9e-5,0.6329 -0.158222,1.2188 -0.474609,1.7578 -0.316424,0.5391 -0.744158,0.9668 -1.283204,1.2833 -0.539078,0.3164 -1.125015,0.4746 -1.757812,0.4746 -0.632827,0 -1.218764,-0.1582 -1.757812,-0.4746 -0.539076,-0.3165 -0.96681,-0.7442 -1.283204,-1.2833 -0.316418,-0.539 -0.474621,-1.1249 -0.474609,-1.7578 -1.2e-5,-0.6328 0.158191,-1.2187 0.474609,-1.7578 0.316394,-0.539 0.744128,-0.9668 1.283204,-1.2832 0.222642,-0.1289 0.457017,-0.2343 0.703125,-0.3164 l 0,-4.9043 -4.236329,2.461 c 0.04687,0.2461 0.0703,0.498 0.07031,0.7558 -10e-6,0.6328 -0.152354,1.2188 -0.457031,1.7578 -0.316416,0.5508 -0.750009,0.9785 -1.3007816,1.2832 -0.5507888,0.3164 -1.1367257,0.4746 -1.7578125,0.4746 -0.6328182,0 -1.2187552,-0.1582 -1.7578125,-0.4746 -0.5390666,-0.3047 -0.9668005,-0.7324 -1.2832032,-1.2832 -0.3164092,-0.539 -0.4746122,-1.125 -0.4746093,-1.7578 -2.9e-6,-0.6211 0.1582001,-1.207 0.4746093,-1.7578 0.3164027,-0.539 0.7441366,-0.9668 1.2832032,-1.2832 0.5507761,-0.3164 1.136713,-0.4746 1.7578125,-0.4746 0.6210868,0 1.2070237,0.1582 1.7578125,0.4746 0.2226479,0.1289 0.4335852,0.2813 0.6328125,0.457 l 4.2363281,-2.4609 -4.2363281,-2.4434 c -0.1875086,0.1758 -0.3984459,0.3282 -0.6328125,0.4571 -0.5742263,0.3164 -1.1601632,0.4746 -1.7578125,0.4746 -0.6328182,0 -1.2187552,-0.1582 -1.7578125,-0.4746 -0.5390666,-0.3164 -0.9668005,-0.7442 -1.2832032,-1.2832 -0.3164092,-0.5391 -0.4746122,-1.125 -0.4746093,-1.7579 -2.9e-6,-0.6327 0.1582001,-1.2187 0.4746093,-1.7578 0.3164027,-0.5507 0.7441366,-0.9785 1.2832032,-1.2832 0.5507761,-0.3164 1.136713,-0.4746 1.7578125,-0.4746 0.5976493,0 1.1835862,0.1582 1.7578125,0.4746 0.5507726,0.3047 0.9843656,0.7325 1.3007816,1.2832 0.304677,0.5391 0.457021,1.1251 0.457031,1.7578 -10e-6,0.2579 -0.02345,0.5098 -0.07031,0.7559 l 4.236329,2.4609 0,-4.9043 c -0.246108,-0.082 -0.480483,-0.1874 -0.703125,-0.3164 -0.539076,-0.3163 -0.96681,-0.7441 -1.283204,-1.2832 -0.316418,-0.539 -0.474621,-1.1249 -0.474609,-1.7578 -1.2e-5,-0.6328 0.158191,-1.2187 0.474609,-1.7578 0.316394,-0.539 0.744128,-0.9668 1.283204,-1.2832 0.550767,-0.3164 1.136704,-0.4746 1.757812,-0.4746 0.632797,0 1.218734,0.1582 1.757812,0.4746 0.539046,0.3164 0.96678,0.7442 1.283204,1.2832 0.316387,0.5391 0.47459,1.125 0.474609,1.7578 -1.9e-5,0.6329 -0.158222,1.2188 -0.474609,1.7578 -0.316424,0.5391 -0.744158,0.9669 -1.283204,1.2832 -0.222672,0.129 -0.457047,0.2344 -0.703125,0.3164 l 0,4.9043 4.236329,-2.4609 c -0.0469,-0.2461 -0.07033,-0.498 -0.07031,-0.7559 -2e-5,-0.6327 0.152323,-1.2187 0.457031,-1.7578 0.304667,-0.5273 0.73826,-0.955 1.300782,-1.2832 0.53904,-0.3164 1.124976,-0.4746 1.757812,-0.4746 0.621069,0 1.207006,0.1582 1.757813,0.4746 0.59763,0.3516 1.025364,0.7794 1.283203,1.2832"
         style=""
         id="path2985" />
    </g>
  </g>
</svg>
