<?xml version="1.0" encoding="UTF-8" standalone="no"?>
<!-- Created with Inkscape (http://www.inkscape.org/) -->

<svg
   xmlns:dc="http://purl.org/dc/elements/1.1/"
   xmlns:cc="http://creativecommons.org/ns#"
   xmlns:rdf="http://www.w3.org/1999/02/22-rdf-syntax-ns#"
   xmlns:svg="http://www.w3.org/2000/svg"
   xmlns="http://www.w3.org/2000/svg"
   xmlns:sodipodi="http://sodipodi.sourceforge.net/DTD/sodipodi-0.dtd"
   xmlns:inkscape="http://www.inkscape.org/namespaces/inkscape"
   width="16"
   height="16"
   id="svg5504"
   version="1.1"
   inkscape:version="0.48.4 r9939"
   sodipodi:docname="characters-stencils.svg">
  <defs
     id="defs5506" />
  <sodipodi:namedview
     id="base"
     pagecolor="#000000"
     bordercolor="#666666"
     borderopacity="1.0"
     inkscape:pageopacity="0"
     inkscape:pageshadow="2"
     inkscape:zoom="22.4"
     inkscape:cx="20.595311"
     inkscape:cy="1140.6591"
     inkscape:document-units="px"
     inkscape:current-layer="layer1"
     showgrid="true"
     inkscape:showpageshadow="true"
     showborder="false"
     gridtolerance="10"
     inkscape:snap-global="true"
     inkscape:snap-bbox="true"
     inkscape:bbox-paths="true"
     inkscape:window-width="1760"
     inkscape:window-height="804"
     inkscape:window-x="67"
     inkscape:window-y="175"
     inkscape:window-maximized="0">
    <inkscape:grid
       type="xygrid"
       id="grid5512"
       empspacing="2"
       visible="true"
       enabled="true"
       snapvisiblegridlinesonly="true" />
  </sodipodi:namedview>
  <metadata
     id="metadata5509">
    <rdf:RDF>
      <cc:Work
         rdf:about="">
        <dc:format>image/svg+xml</dc:format>
        <dc:type
           rdf:resource="http://purl.org/dc/dcmitype/StillImage" />
        <dc:title />
      </cc:Work>
    </rdf:RDF>
  </metadata>
  <g
     inkscape:label="categories"
     inkscape:groupmode="layer"
     id="layer1"
     transform="translate(0,-1036.3622)">
    <g
       id="g7155"
       inkscape:label="characters-punctuation">
      <rect
         style="opacity:0.01000001;fill:#000000;fill-opacity:1;stroke:none"
         id="rect18275-6-25"
         width="16"
         height="16"
         x="-5"
         y="-127.6378" />
      <g
         id="text10660"
         style="font-size:36px;font-style:normal;font-variant:normal;font-weight:normal;font-stretch:normal;line-height:125%;letter-spacing:0px;word-spacing:0px;fill:#888a85;fill-opacity:1;stroke:none;display:inline;font-family:Cantarell;-inkscape-font-specification:Cantarell"
         transform="matrix(0.54700855,0,0,0.54700855,-6.5490218,-685.89517)">
        <path
           id="path2985-8"
           d="m 20.271484,1032.9432 7.382813,0 0,0.6328 c -0.914086,0.1055 -1.669945,0.3223 -2.267578,0.6504 -0.351585,0.1758 -1.289084,1.5001 -2.8125,3.9727 -1.804705,2.8711 -2.789079,4.418 -2.953125,4.6406 1.863263,2.1797 3.615214,3.2696 5.255859,3.2696 1.687477,0 2.777319,-0.8614 3.269531,-2.584 l 0.650391,0.457 c -0.808619,3.2227 -2.619164,4.834 -5.431641,4.834 -2.015643,0 -4.078141,-1.1426 -6.1875,-3.4278 -2.660167,2.2852 -5.220712,3.4278 -7.6816402,3.4278 -1.7226609,0 -3.169925,-0.4336 -4.3417969,-1.3008 -1.3007819,-0.9727 -1.9511719,-2.291 -1.9511719,-3.9551 0,-3.2109 2.4374976,-6.082 7.3125,-8.6133 -0.9609439,-2.1093 -1.4414121,-3.8495 -1.4414062,-5.2207 -5.9e-6,-1.7695 0.5683529,-3.1816 1.7050782,-4.2363 1.13671,-1.0547 2.607412,-1.582 4.412109,-1.582 1.371081,0 2.49608,0.3809 3.375,1.1426 0.914046,0.7734 1.371077,1.8164 1.371094,3.1289 -1.7e-5,2.332 -1.927749,4.4472 -5.783203,6.3457 1.66405,2.8711 3.210923,5.291 4.640625,7.2597 2.062482,-2.4726 3.093731,-4.5351 3.09375,-6.1875 -1.9e-5,-1.3359 -0.539081,-2.0097 -1.617188,-2.0215 l 0,-0.6328 m -6.732421,0.4219 c 2.906236,-1.3711 4.35936,-3.123 4.359374,-5.2558 -1.4e-5,-0.8086 -0.257826,-1.5 -0.773437,-2.0743 -0.527357,-0.5624 -1.183606,-0.8437 -1.96875,-0.8437 -0.902355,0 -1.646495,0.3047 -2.232422,0.914 -0.574228,0.6094 -0.861337,1.377 -0.861328,2.3028 -9e-6,1.1016 0.492178,2.7539 1.476563,4.957 m 2.724609,11.0215 c -2.519542,-3.4687 -4.242196,-6.2168 -5.167969,-8.2441 -2.8359424,1.5586 -4.2539098,3.5039 -4.2539061,5.8359 -3.7e-6,1.3711 0.4042928,2.4961 1.2128906,3.375 0.8203068,0.8906 1.9160089,1.3359 3.2871095,1.3359 1.40624,0 3.046864,-0.7675 4.921875,-2.3027"
           inkscape:connector-curvature="0" />
      </g>
    </g>
    <g
       id="g7163"
       inkscape:label="characters-arrow">
      <rect
         style="fill:none;stroke:none"
         id="rect18275-6-1"
         width="16"
         height="16"
         x="11.00001"
         y="-127.6378" />
      <g
         id="text10664-8"
         style="font-size:36px;font-style:normal;font-variant:normal;font-weight:normal;font-stretch:normal;line-height:125%;letter-spacing:0px;word-spacing:0px;fill:#888a85;fill-opacity:1;stroke:none;display:inline;font-family:Cantarell;-inkscape-font-specification:Cantarell"
         transform="matrix(0.53131717,0,0,0.53131717,10.498925,-670.36555)">
        <path
           id="path2985-5"
           d="m 29.174805,1035.5712 0,1.582 -6.908203,6.9082 -2.109375,-2.1094 4.095703,-4.0957 -21.4277347,0 0,-2.9883 21.4277347,0 -4.095703,-4.0957 2.109375,-2.1093 6.908203,6.9082"
           inkscape:connector-curvature="0" />
      </g>
    </g>
    <g
       id="g7171"
       inkscape:label="characters-bullet">
      <rect
         style="fill:none;stroke:none"
         id="rect18275-6-1-8"
         width="16"
         height="16"
         x="27"
         y="-127.6378" />
      <g
         id="text10668"
         style="font-size:36px;font-style:normal;font-variant:normal;font-weight:normal;font-stretch:normal;line-height:125%;letter-spacing:0px;word-spacing:0px;fill:#888a85;fill-opacity:1;stroke:none;display:inline;font-family:Cantarell;-inkscape-font-specification:Cantarell"
         transform="matrix(0.5148308,0,0,0.5148308,26.455024,-653.18898)">
        <path
           id="path2985"
           d="m 27.777344,1029.5682 c 0.316379,0.6329 0.474582,1.2188 0.474609,1.7578 -2.7e-5,0.6212 -0.15823,1.2071 -0.474609,1.7579 -0.316433,0.539 -0.744167,0.9668 -1.283203,1.2832 -0.550807,0.3164 -1.136744,0.4746 -1.757813,0.4746 -0.632836,0 -1.218772,-0.1582 -1.757812,-0.4746 -0.222678,-0.1289 -0.433616,-0.2813 -0.632813,-0.4571 l -4.236328,2.4434 4.236328,2.4609 c 0.199197,-0.1757 0.410135,-0.3281 0.632813,-0.457 0.53904,-0.3164 1.124976,-0.4746 1.757812,-0.4746 0.621069,0 1.207006,0.1582 1.757813,0.4746 0.539036,0.3164 0.96677,0.7442 1.283203,1.2832 0.316379,0.5508 0.474582,1.1367 0.474609,1.7578 -2.7e-5,0.6094 -0.15823,1.1895 -0.474609,1.7402 -0.328152,0.5508 -0.755886,0.9844 -1.283203,1.3008 -0.550807,0.3164 -1.136744,0.4746 -1.757813,0.4746 -0.597679,0 -1.183616,-0.1582 -1.757812,-0.4746 -0.550803,-0.3047 -0.984396,-0.7324 -1.300782,-1.2832 -0.304708,-0.539 -0.457051,-1.125 -0.457031,-1.7578 -2e-5,-0.2578 0.02342,-0.5097 0.07031,-0.7558 l -4.236329,-2.461 0,4.9043 c 0.246078,0.082 0.480453,0.1875 0.703125,0.3164 0.539046,0.3164 0.96678,0.7442 1.283204,1.2832 0.316387,0.5391 0.47459,1.125 0.474609,1.7578 -1.9e-5,0.6329 -0.158222,1.2188 -0.474609,1.7578 -0.316424,0.5391 -0.744158,0.9668 -1.283204,1.2833 -0.539078,0.3164 -1.125015,0.4746 -1.757812,0.4746 -0.632827,0 -1.218764,-0.1582 -1.757812,-0.4746 -0.539076,-0.3165 -0.96681,-0.7442 -1.283204,-1.2833 -0.316418,-0.539 -0.474621,-1.1249 -0.474609,-1.7578 -1.2e-5,-0.6328 0.158191,-1.2187 0.474609,-1.7578 0.316394,-0.539 0.744128,-0.9668 1.283204,-1.2832 0.222642,-0.1289 0.457017,-0.2343 0.703125,-0.3164 l 0,-4.9043 -4.236329,2.461 c 0.04687,0.2461 0.0703,0.498 0.07031,0.7558 -1e-5,0.6328 -0.152354,1.2188 -0.457031,1.7578 -0.316416,0.5508 -0.750009,0.9785 -1.3007816,1.2832 -0.5507888,0.3164 -1.1367257,0.4746 -1.7578125,0.4746 -0.6328182,0 -1.2187552,-0.1582 -1.7578125,-0.4746 -0.5390666,-0.3047 -0.9668005,-0.7324 -1.2832032,-1.2832 -0.3164092,-0.539 -0.4746122,-1.125 -0.4746093,-1.7578 -2.9e-6,-0.6211 0.1582001,-1.207 0.4746093,-1.7578 0.3164027,-0.539 0.7441366,-0.9668 1.2832032,-1.2832 0.5507761,-0.3164 1.136713,-0.4746 1.7578125,-0.4746 0.6210868,0 1.2070237,0.1582 1.7578125,0.4746 0.2226479,0.1289 0.4335852,0.2813 0.6328125,0.457 l 4.2363281,-2.4609 -4.2363281,-2.4434 c -0.1875086,0.1758 -0.3984459,0.3282 -0.6328125,0.4571 -0.5742263,0.3164 -1.1601632,0.4746 -1.7578125,0.4746 -0.6328182,0 -1.2187552,-0.1582 -1.7578125,-0.4746 -0.5390666,-0.3164 -0.9668005,-0.7442 -1.2832032,-1.2832 -0.3164092,-0.5391 -0.4746122,-1.125 -0.4746093,-1.7579 -2.9e-6,-0.6327 0.1582001,-1.2187 0.4746093,-1.7578 0.3164027,-0.5507 0.7441366,-0.9785 1.2832032,-1.2832 0.5507761,-0.3164 1.136713,-0.4746 1.7578125,-0.4746 0.5976493,0 1.1835862,0.1582 1.7578125,0.4746 0.5507726,0.3047 0.9843656,0.7325 1.3007816,1.2832 0.304677,0.5391 0.457021,1.1251 0.457031,1.7578 -1e-5,0.2579 -0.02345,0.5098 -0.07031,0.7559 l 4.236329,2.4609 0,-4.9043 c -0.246108,-0.082 -0.480483,-0.1874 -0.703125,-0.3164 -0.539076,-0.3163 -0.96681,-0.7441 -1.283204,-1.2832 -0.316418,-0.539 -0.474621,-1.1249 -0.474609,-1.7578 -1.2e-5,-0.6328 0.158191,-1.2187 0.474609,-1.7578 0.316394,-0.539 0.744128,-0.9668 1.283204,-1.2832 0.550767,-0.3164 1.136704,-0.4746 1.757812,-0.4746 0.632797,0 1.218734,0.1582 1.757812,0.4746 0.539046,0.3164 0.96678,0.7442 1.283204,1.2832 0.316387,0.5391 0.47459,1.125 0.474609,1.7578 -1.9e-5,0.6329 -0.158222,1.2188 -0.474609,1.7578 -0.316424,0.5391 -0.744158,0.9669 -1.283204,1.2832 -0.222672,0.129 -0.457047,0.2344 -0.703125,0.3164 l 0,4.9043 4.236329,-2.4609 c -0.0469,-0.2461 -0.07033,-0.498 -0.07031,-0.7559 -2e-5,-0.6327 0.152323,-1.2187 0.457031,-1.7578 0.304667,-0.5273 0.73826,-0.955 1.300782,-1.2832 0.53904,-0.3164 1.124976,-0.4746 1.757812,-0.4746 0.621069,0 1.207006,0.1582 1.757813,0.4746 0.59763,0.3516 1.025364,0.7794 1.283203,1.2832"
           inkscape:connector-curvature="0" />
      </g>
    </g>
    <g
       id="g7008"
       inkscape:label="characters-picture">
      <rect
         style="fill:none;stroke:none"
         id="rect18275-6-1-2"
         width="16"
         height="16"
         x="-4.9999905"
         y="-111.6378" />
      <g
         id="text10707"
         style="font-size:36px;font-style:normal;font-variant:normal;font-weight:normal;font-stretch:normal;line-height:125%;letter-spacing:0px;word-spacing:0px;fill:#888a85;fill-opacity:1;stroke:none;display:inline;font-family:Cantarell;-inkscape-font-specification:Cantarell"
         transform="matrix(0.43448741,0,0,0.43448741,-4.4517982,-553.66624)">
        <path
           id="path2985-0"
           d="m 33.261719,1033.6112 c -3.6e-5,0.75 -0.392614,1.2481 -1.177735,1.4941 -0.492222,0.1524 -1.347689,0.2286 -2.566406,0.2286 -1.406281,0 -2.425811,-0.088 -3.058594,-0.2637 -0.984403,-0.2578 -1.511746,-0.8027 -1.582031,-1.6348 1.769502,0.1993 3.503875,0.2989 5.203125,0.2989 1.066372,0 2.126918,-0.041 3.181641,-0.1231 m 0,-0.5977 c -1.007848,0.082 -1.810581,0.1231 -2.408203,0.1231 -0.50394,0 -2.64261,-0.1113 -6.416016,-0.334 -0.140652,-0.7968 -0.990261,-1.289 -2.548828,-1.4766 l 0.07031,1.7579 c 1.488255,0.9961 2.859348,2.6953 4.113282,5.0976 1.218719,2.2969 1.828094,4.2188 1.828125,5.7656 -3.1e-5,1.4766 -0.398468,2.2149 -1.195313,2.2149 l -21.1640624,0 c -1.0078199,0 -1.5117256,-0.6152 -1.5117187,-1.8457 -6.9e-6,-1.5234 0.6269456,-3.5039 1.8808593,-5.9414 1.3242087,-2.5547 2.7128792,-4.3184 4.1660158,-5.291 l 0,-1.7579 c -1.5234491,0.1759 -2.3613388,0.668 -2.513672,1.4766 -1.2656342,0.2227 -3.041023,0.334 -5.3261719,0.334 -1.37109747,0 -2.53711193,-0.041 -3.4980468,-0.1231 0.1289045,-2.332 1.14843468,-3.9198 3.0585937,-4.7636 1.2656191,-0.5742 3.5566324,-1.0195 6.8730469,-1.336 2.4140481,-0.2343 4.8632651,-0.3515 7.3476561,-0.3515 6.832006,0 11.560517,0.5625 14.185547,1.6875 1.968715,0.8203 2.988245,2.4082 3.058594,4.7636 m -12.603516,-1.8632 c -1.652366,-0.3399 -3.222676,-0.5098 -4.710937,-0.5098 -1.429705,0 -3.000016,0.1699 -4.710938,0.5098 l 0.861328,1.5117 7.734375,0 0.826172,-1.5117 m 1.160156,7.3828 c -2.4e-5,-0.9492 -0.650414,-1.7168 -1.951172,-2.3028 -1.066427,-0.4804 -2.349629,-0.7206 -3.849609,-0.7207 -1.453142,10e-5 -2.736344,0.252 -3.849609,0.7559 -1.324233,0.5625 -1.986341,1.3184 -1.986328,2.2676 -1.3e-5,0.9609 0.662095,1.7226 1.986328,2.2851 1.113265,0.504 2.396467,0.7559 3.849609,0.7559 1.453105,0 2.736307,-0.2519 3.849609,-0.7559 1.300758,-0.5625 1.951148,-1.3242 1.951172,-2.2851 m 2.917969,5.8359 0.351563,-0.2461 -0.351563,-0.2461 -17.3496093,0 -0.3691406,0.2461 0.3691406,0.2461 17.3496093,0 m -3.814453,-6.9961 c -2.4e-5,0.3868 -0.287133,0.5801 -0.861328,0.5801 -0.609397,0 -0.914085,-0.1933 -0.914063,-0.5801 -2.2e-5,-0.4101 0.304666,-0.6152 0.914063,-0.6152 0.574195,0 0.861304,0.2051 0.861328,0.6152 m -1.845703,-0.8965 c -2.2e-5,0.4102 -0.29885,0.6153 -0.896485,0.6153 -0.574239,0 -0.861348,-0.2051 -0.861328,-0.6153 -2e-5,-0.3749 0.287089,-0.5624 0.861328,-0.5625 0.597635,10e-5 0.896463,0.1876 0.896485,0.5625 m 2.408203,2.3204 c -2.4e-5,0.4101 -0.298852,0.6152 -0.896484,0.6152 -0.574242,0 -0.861351,-0.2051 -0.861329,-0.6152 -2.2e-5,-0.3868 0.287087,-0.5801 0.861329,-0.5801 0.597632,0 0.89646,0.1933 0.896484,0.5801 m -5.097656,-2.5665 c -2e-5,0.4102 -0.304707,0.6153 -0.914063,0.6153 -0.574236,0 -0.861345,-0.2051 -0.861328,-0.6153 -1.7e-5,-0.3867 0.287092,-0.58 0.861328,-0.58 0.609356,0 0.914043,0.1933 0.914063,0.58 m 3.884765,3.9375 c -2.3e-5,0.3985 -0.298851,0.5977 -0.896484,0.5977 -0.57424,0 -0.86135,-0.1992 -0.861328,-0.5977 -2.2e-5,-0.3867 0.287088,-0.58 0.861328,-0.58 0.597633,0 0.896461,0.1933 0.896484,0.58 m -0.65039,-1.6699 c -2.3e-5,0.5157 -0.433616,0.9727 -1.300782,1.3711 -0.75002,0.3164 -1.541035,0.4746 -2.373046,0.4746 -0.808612,0 -1.576189,-0.1582 -2.302735,-0.4746 -0.843765,-0.3633 -1.26564,-0.8203 -1.265625,-1.3711 -1.5e-5,-0.5273 0.457016,-0.9492 1.371094,-1.2656 0.738264,-0.2344 1.51756,-0.3515 2.337891,-0.3516 0.808574,10e-5 1.564432,0.129 2.267578,0.3868 0.843728,0.2812 1.265602,0.6914 1.265625,1.2304 m -5.730469,-1.6523 c -1.7e-5,0.3867 -0.287126,0.5801 -0.861328,0.5801 -0.597672,0 -0.8965,-0.1934 -0.896484,-0.5801 -1.6e-5,-0.4102 0.298812,-0.6152 0.896484,-0.6153 0.574202,10e-5 0.861311,0.2051 0.861328,0.6153 m 4.183594,4.0254 c -2.1e-5,0.3984 -0.298849,0.5976 -0.896485,0.5976 -0.574238,0 -0.861347,-0.1992 -0.861328,-0.5976 -1.9e-5,-0.3867 0.28709,-0.5801 0.861328,-0.5801 0.597636,0 0.896464,0.1934 0.896485,0.5801 m -5.695313,-2.7774 c -1.5e-5,0.3868 -0.287124,0.5801 -0.861328,0.5801 -0.59767,0 -0.896498,-0.1933 -0.896484,-0.5801 -1.4e-5,-0.3984 0.298814,-0.5976 0.896484,-0.5976 0.574204,0 0.861313,0.1992 0.861328,0.5976 m 2.847657,2.6719 c -1.9e-5,0.3867 -0.287128,0.5801 -0.861329,0.5801 -0.597673,0 -0.8965,-0.1934 -0.896484,-0.5801 -1.6e-5,-0.3984 0.298811,-0.5976 0.896484,-0.5977 0.574201,10e-5 0.86131,0.1993 0.861329,0.5977 m -2.337891,-0.8789 c -1.6e-5,0.3867 -0.287125,0.5801 -0.861328,0.5801 -0.597671,0 -0.896499,-0.1934 -0.896485,-0.5801 -1.4e-5,-0.3984 0.298814,-0.5976 0.896485,-0.5977 0.574203,10e-5 0.861312,0.1993 0.861328,0.5977 m -5.7304689,-6.4512 c -0.070322,0.8086 -0.6679781,1.3653 -1.7929687,1.6699 -0.6914138,0.1524 -1.7461003,0.2286 -3.1640625,0.2286 -1.078129,0 -1.86914386,-0.094 -2.3730469,-0.2813 -0.703127,-0.2695 -1.0546892,-0.75 -1.0546875,-1.4414 1.03124732,0.07 1.98046512,0.1055 2.8476562,0.1055 1.8984312,0 3.7441324,-0.094 5.5371094,-0.2813"
           inkscape:connector-curvature="0" />
      </g>
    </g>
    <g
       id="g7116"
       inkscape:label="characters-currency">
      <rect
         style="fill:none;stroke:none"
         id="rect18275-6-1-7"
         width="16"
         height="16"
         x="11"
         y="-111.6378" />
      <g
         id="text10746"
         style="font-size:36px;font-style:normal;font-variant:normal;font-weight:normal;font-stretch:normal;line-height:125%;letter-spacing:0px;word-spacing:0px;fill:#888a85;fill-opacity:1;stroke:none;display:inline;font-family:Cantarell;-inkscape-font-specification:Cantarell"
         transform="matrix(0.50505051,0,0,0.50505051,10.033478,-627.05306)">
        <path
           id="path2985-88"
           d="m 10.06,1041.6182 -0.7920002,2.196 c 2.0519982,0.828 3.9600022,1.26 5.7240002,1.296 l 0,5.112 2.124,0 0,-5.22 c 2.231998,-0.288 3.816001,-1.152 4.716,-2.484 0.647999,-0.936 0.9,-1.62 0.9,-3.096 0,-1.584 -1.440001,-2.916 -2.628,-3.492 -1.403999,-0.684 -3.276002,-1.332 -4.824,-1.836 -1.079999,-0.36 -2.592,-0.936 -2.592,-2.16 0,-0.468 0.144,-0.864 0.432,-1.26 0.791999,-1.116 2.088002,-1.332 4.14,-1.332 0.935999,0 2.196001,0.216 3.78,0.648 l 0.72,-2.196 c -0.36,-0.108 -0.612,-0.216 -0.792,-0.252 l -0.396,-0.108 c -0.324,-0.108 -0.936001,-0.252 -1.368,-0.252 -0.36,0 -0.792001,-0.108 -1.152,-0.108 l -0.936,0 0,-4.572 -2.124,0 0,4.788 c -1.223999,0.216 -2.196001,0.576 -2.952,1.044 -1.115999,0.72 -2.3400002,1.98 -2.3400002,3.852 0,1.368 0.5040012,2.448 1.5480002,3.204 0.467999,0.36 1.008,0.684 1.584,0.972 1.115999,0.576 2.412001,0.828 3.6,1.26 1.403998,0.54 3.132,0.72 3.132,2.628 0,0.576 -0.216001,1.08 -0.648,1.512 -0.863999,0.864 -2.160002,1.08 -3.852,1.08 -2.267998,0 -3.096002,-0.432 -5.004,-1.224"
           inkscape:connector-curvature="0" />
      </g>
    </g>
    <g
       id="g7252"
       inkscape:label="characters-math">
      <rect
         style="fill:none;stroke:none"
         id="rect18275-6-1-0"
         width="16"
         height="16"
         x="27.00001"
         y="-111.6378" />
      <g
         id="text7992"
         style="font-size:36px;font-style:normal;font-variant:normal;font-weight:normal;font-stretch:normal;line-height:125%;letter-spacing:0px;word-spacing:0px;fill:#888a85;fill-opacity:1;stroke:none;display:inline;font-family:Cantarell;-inkscape-font-specification:Cantarell"
         transform="matrix(0.4766282,0,0,0.4766282,27.597159,-597.59725)">
        <path
           id="path2985-01"
           d="m 3.8798828,1051.0487 0.4746094,-2.8125 12.8847658,-11.0039 -7.9804689,-13.6934 0.3164062,-1.8632 18.5449217,0 -0.861328,5.1855 -1.845703,0 c -2.2e-5,-0.2578 0.06443,-0.6914 0.193359,-1.3008 0.140603,-0.5742 0.210916,-1.0078 0.210938,-1.3008 -2.2e-5,-0.6562 -0.7676,-0.9843 -2.302735,-0.9843 l -9.580078,0 7.013672,12.2695 -14.8007811,12.6914 13.6933591,0 c 1.195295,0 1.998029,-0.2402 2.408203,-0.7207 0.421856,-0.5156 0.744122,-1.5 0.966797,-2.9531 l 1.775391,0 -1.054688,6.4863 -20.0566402,0"
           inkscape:connector-curvature="0" />
      </g>
    </g>
    <g
       id="g7360"
       inkscape:label="characters-latin">
      <rect
         style="fill:none;stroke:none"
         id="rect18275-6-1-9"
         width="16"
         height="16"
         x="-5.0000005"
         y="-95.637802" />
      <g
         id="text8023"
         style="font-size:36px;font-style:normal;font-variant:normal;font-weight:normal;font-stretch:normal;line-height:125%;letter-spacing:0px;word-spacing:0px;fill:#888a85;fill-opacity:1;stroke:none;display:inline;font-family:Cantarell;-inkscape-font-specification:Cantarell"
         transform="matrix(0.41195857,0,0,0.41195857,-4.327566,-514.57609)">
        <path
           id="path2985-6"
           d="m 18.358,1019.3702 -6.408,5.688 1.44,1.764 6.624,-5.544 -1.656,-1.908 m 7.992,33.984 -8.532,-24.984 -3.672,0 -8.4959999,24.984 3.096,0 2.3759999,-7.272 9.504,0 2.376,7.272 3.348,0 m -10.476,-21.816 3.888,11.916 -7.776,0 3.888,-11.916"
           inkscape:connector-curvature="0" />
      </g>
    </g>
  </g>
</svg>
